<svg xmlns="http://www.w3.org/2000/svg" viewBox="0 0 760 520">
  <defs>
    <linearGradient id="bg" x1="0" y1="0" x2="1" y2="1">
      <stop offset="0%" stop-color="#ffffff" stop-opacity="0.95"/>
      <stop offset="100%" stop-color="#e0e7ff" stop-opacity="0.95"/>
    </linearGradient>
    <linearGradient id="accent" x1="0" y1="0" x2="1" y2="1">
      <stop offset="0%" stop-color="#6366f1"/>
      <stop offset="100%" stop-color="#3b82f6"/>
    </linearGradient>
  </defs>
  <rect width="760" height="520" rx="32" fill="url(#bg)"/>
  <rect x="64" y="80" width="420" height="240" rx="20" fill="#111827"/>
  <rect x="88" y="104" width="180" height="16" rx="8" fill="#6366f1"/>
  <rect x="88" y="136" width="260" height="12" rx="6" fill="#e5e7eb"/>
  <rect x="88" y="160" width="220" height="12" rx="6" fill="#e5e7eb"/>
  <rect x="88" y="196" width="140" height="12" rx="6" fill="#93c5fd"/>
  <rect x="88" y="220" width="200" height="12" rx="6" fill="#93c5fd"/>
  <circle cx="560" cy="180" r="70" fill="url(#accent)"/>
  <circle cx="560" cy="160" r="28" fill="#f9fafb"/>
  <rect x="520" y="196" width="80" height="90" rx="24" fill="#f9fafb"/>
  <rect x="520" y="206" width="80" height="36" rx="18" fill="#e0e7ff"/>
  <rect x="200" y="360" width="360" height="24" rx="12" fill="#c7d2fe"/>
  <rect x="140" y="400" width="480" height="36" rx="18" fill="#111827"/>
  <rect x="160" y="410" width="200" height="16" rx="8" fill="#93c5fd"/>
  <rect x="380" y="410" width="160" height="16" rx="8" fill="#6366f1"/>
</svg>
